<?xml version="1.0" standalone="no"?><!-- Generator: Gravit.io --><svg xmlns="http://www.w3.org/2000/svg" xmlns:xlink="http://www.w3.org/1999/xlink" style="isolation:isolate" viewBox="0 0 500 500" width="500" height="500"><defs><clipPath id="_clipPath_rrbT8gQ9FrWhrxBm8QfpvBneqZvY68bJ"><rect width="500" height="500"/></clipPath></defs><g clip-path="url(#_clipPath_rrbT8gQ9FrWhrxBm8QfpvBneqZvY68bJ)"><rect width="500" height="500" style="fill:rgb(209,209,209)"/><path d=" M 79.141 306.107 C 79.047 304.752 79 303.39 79 302.022 C 79 261.03 121.513 225.782 182.223 210.48 C 200.038 226.341 223.854 236.029 250 236.029 C 276.146 236.029 299.962 226.341 317.777 210.48 C 378.487 225.782 421 261.03 421 302.022 C 421 303.39 420.953 304.752 420.859 306.107 L 421 306.107 L 421 500 L 79 500 L 79 306.107 L 79.141 306.107 Z " fill="rgb(93,93,93)"/><path d=" M 150 110.48 C 150 55.288 194.808 10.48 250 10.48 C 305.192 10.48 350 55.288 350 110.48 C 350 165.671 305.192 210.48 250 210.48 C 194.808 210.48 150 165.671 150 110.48 Z " fill="rgb(93,93,93)"/></g></svg>